%TF.GenerationSoftware,KiCad,Pcbnew,10.0.4-10.0.4~ubuntu24.04.1*%
%TF.CreationDate,2026-06-23T20:31:41-04:00*%
%TF.ProjectId,Codec,436f6465-632e-46b6-9963-61645f706362,rev?*%
%TF.SameCoordinates,Original*%
%TF.FileFunction,Paste,Top*%
%TF.FilePolarity,Positive*%
%FSLAX46Y46*%
G04 Gerber Fmt 4.6, Leading zero omitted, Abs format (unit mm)*
G04 Created by KiCad (PCBNEW 10.0.4-10.0.4~ubuntu24.04.1) date 2026-06-23 20:31:41*
%MOMM*%
%LPD*%
G01*
G04 APERTURE LIST*
G04 Aperture macros list*
%AMRoundRect*
0 Rectangle with rounded corners*
0 $1 Rounding radius*
0 $2 $3 $4 $5 $6 $7 $8 $9 X,Y pos of 4 corners*
0 Add a 4 corners polygon primitive as box body*
4,1,4,$2,$3,$4,$5,$6,$7,$8,$9,$2,$3,0*
0 Add four circle primitives for the rounded corners*
1,1,$1+$1,$2,$3*
1,1,$1+$1,$4,$5*
1,1,$1+$1,$6,$7*
1,1,$1+$1,$8,$9*
0 Add four rect primitives between the rounded corners*
20,1,$1+$1,$2,$3,$4,$5,0*
20,1,$1+$1,$4,$5,$6,$7,0*
20,1,$1+$1,$6,$7,$8,$9,0*
20,1,$1+$1,$8,$9,$2,$3,0*%
G04 Aperture macros list end*
%ADD10RoundRect,0.250000X0.475000X-0.250000X0.475000X0.250000X-0.475000X0.250000X-0.475000X-0.250000X0*%
%ADD11RoundRect,0.250000X0.262500X0.450000X-0.262500X0.450000X-0.262500X-0.450000X0.262500X-0.450000X0*%
%ADD12RoundRect,0.135000X0.135000X0.185000X-0.135000X0.185000X-0.135000X-0.185000X0.135000X-0.185000X0*%
%ADD13RoundRect,0.250000X-0.475000X0.250000X-0.475000X-0.250000X0.475000X-0.250000X0.475000X0.250000X0*%
%ADD14RoundRect,0.250000X0.450000X-0.262500X0.450000X0.262500X-0.450000X0.262500X-0.450000X-0.262500X0*%
%ADD15RoundRect,0.150000X0.150000X-0.825000X0.150000X0.825000X-0.150000X0.825000X-0.150000X-0.825000X0*%
%ADD16RoundRect,0.150000X-0.512500X-0.150000X0.512500X-0.150000X0.512500X0.150000X-0.512500X0.150000X0*%
%ADD17RoundRect,0.250000X-0.450000X0.262500X-0.450000X-0.262500X0.450000X-0.262500X0.450000X0.262500X0*%
%ADD18RoundRect,0.250000X0.250000X0.475000X-0.250000X0.475000X-0.250000X-0.475000X0.250000X-0.475000X0*%
%ADD19RoundRect,0.250000X1.250000X0.550000X-1.250000X0.550000X-1.250000X-0.550000X1.250000X-0.550000X0*%
%ADD20RoundRect,0.232500X0.232500X-0.232500X0.232500X0.232500X-0.232500X0.232500X-0.232500X-0.232500X0*%
%ADD21RoundRect,0.062500X0.062500X-0.375000X0.062500X0.375000X-0.062500X0.375000X-0.062500X-0.375000X0*%
%ADD22RoundRect,0.062500X0.375000X-0.062500X0.375000X0.062500X-0.375000X0.062500X-0.375000X-0.062500X0*%
%ADD23RoundRect,0.135000X0.185000X-0.135000X0.185000X0.135000X-0.185000X0.135000X-0.185000X-0.135000X0*%
%ADD24RoundRect,0.250000X-0.250000X-0.475000X0.250000X-0.475000X0.250000X0.475000X-0.250000X0.475000X0*%
G04 APERTURE END LIST*
D10*
%TO.C,C34*%
X131000000Y-164950000D03*
X131000000Y-163050000D03*
%TD*%
D11*
%TO.C,R26*%
X144375000Y-123700000D03*
X142550000Y-123700000D03*
%TD*%
D12*
%TO.C,R17*%
X177250000Y-134750000D03*
X176230000Y-134750000D03*
%TD*%
D10*
%TO.C,C20*%
X134900000Y-147100000D03*
X134900000Y-145200000D03*
%TD*%
%TO.C,C21*%
X154200000Y-117400000D03*
X154200000Y-115500000D03*
%TD*%
D11*
%TO.C,R13*%
X173250000Y-128250000D03*
X171425000Y-128250000D03*
%TD*%
D13*
%TO.C,C25*%
X169300000Y-115300000D03*
X169300000Y-117200000D03*
%TD*%
D11*
%TO.C,R21*%
X136412500Y-136900000D03*
X134587500Y-136900000D03*
%TD*%
D12*
%TO.C,R15*%
X177250000Y-137500000D03*
X176230000Y-137500000D03*
%TD*%
D14*
%TO.C,R2*%
X176750000Y-144412500D03*
X176750000Y-142587500D03*
%TD*%
D12*
%TO.C,R16*%
X177250000Y-119500000D03*
X176230000Y-119500000D03*
%TD*%
D10*
%TO.C,C15*%
X143500000Y-127800000D03*
X143500000Y-125900000D03*
%TD*%
D15*
%TO.C,U3*%
X134995000Y-130775000D03*
X136265000Y-130775000D03*
X137535000Y-130775000D03*
X138805000Y-130775000D03*
X138805000Y-125825000D03*
X137535000Y-125825000D03*
X136265000Y-125825000D03*
X134995000Y-125825000D03*
%TD*%
D16*
%TO.C,U4*%
X146562500Y-142700000D03*
X146562500Y-143650000D03*
X146562500Y-144600000D03*
X148837500Y-144600000D03*
X148837500Y-142700000D03*
%TD*%
D11*
%TO.C,R23*%
X144925000Y-134700000D03*
X143100000Y-134700000D03*
%TD*%
D14*
%TO.C,R33*%
X176750000Y-148412500D03*
X176750000Y-146587500D03*
%TD*%
D10*
%TO.C,C29*%
X151700000Y-144850000D03*
X151700000Y-142950000D03*
%TD*%
D13*
%TO.C,C22*%
X157000000Y-115500000D03*
X157000000Y-117400000D03*
%TD*%
D17*
%TO.C,R31*%
X124500000Y-120225000D03*
X124500000Y-122050000D03*
%TD*%
D13*
%TO.C,C3*%
X156900000Y-144950000D03*
X156900000Y-146850000D03*
%TD*%
D11*
%TO.C,R14*%
X171075000Y-120250000D03*
X169250000Y-120250000D03*
%TD*%
D13*
%TO.C,C4*%
X174250000Y-108800000D03*
X174250000Y-110700000D03*
%TD*%
D11*
%TO.C,R10*%
X168325000Y-126250000D03*
X166500000Y-126250000D03*
%TD*%
D17*
%TO.C,R25*%
X143500000Y-129700000D03*
X143500000Y-131525000D03*
%TD*%
D14*
%TO.C,R3*%
X176750000Y-127162500D03*
X176750000Y-125337500D03*
%TD*%
D11*
%TO.C,R22*%
X144925000Y-136900000D03*
X143100000Y-136900000D03*
%TD*%
D13*
%TO.C,C32*%
X156500000Y-131700000D03*
X156500000Y-133600000D03*
%TD*%
D10*
%TO.C,C23*%
X164000000Y-117200000D03*
X164000000Y-115300000D03*
%TD*%
%TO.C,C36*%
X169500000Y-164950000D03*
X169500000Y-163050000D03*
%TD*%
D13*
%TO.C,C12*%
X145700000Y-129662500D03*
X145700000Y-131562500D03*
%TD*%
D11*
%TO.C,R29*%
X137825000Y-119900000D03*
X136000000Y-119900000D03*
%TD*%
D10*
%TO.C,C28*%
X144200000Y-144550000D03*
X144200000Y-142650000D03*
%TD*%
D11*
%TO.C,R27*%
X144282500Y-121542500D03*
X142457500Y-121542500D03*
%TD*%
D18*
%TO.C,C26*%
X152750000Y-122500000D03*
X150850000Y-122500000D03*
%TD*%
D10*
%TO.C,C18*%
X133100000Y-127850000D03*
X133100000Y-125950000D03*
%TD*%
D14*
%TO.C,R30*%
X143300000Y-118412500D03*
X143300000Y-116587500D03*
%TD*%
D13*
%TO.C,C24*%
X166800000Y-115300000D03*
X166800000Y-117200000D03*
%TD*%
D19*
%TO.C,C7*%
X139150000Y-103500000D03*
X134750000Y-103500000D03*
%TD*%
D14*
%TO.C,R32*%
X133500000Y-118900000D03*
X133500000Y-117075000D03*
%TD*%
%TO.C,R4*%
X161500000Y-117250000D03*
X161500000Y-115425000D03*
%TD*%
D16*
%TO.C,U2*%
X129625000Y-145200000D03*
X129625000Y-146150000D03*
X129625000Y-147100000D03*
X131900000Y-147100000D03*
X131900000Y-145200000D03*
%TD*%
D18*
%TO.C,C9*%
X136450000Y-134500000D03*
X134550000Y-134500000D03*
%TD*%
D10*
%TO.C,C17*%
X126900000Y-121000000D03*
X126900000Y-119100000D03*
%TD*%
D14*
%TO.C,R28*%
X145700000Y-127725000D03*
X145700000Y-125900000D03*
%TD*%
D20*
%TO.C,U1*%
X159340373Y-126861277D03*
X160490373Y-126861277D03*
X161640373Y-126861277D03*
X159340373Y-125711277D03*
X160490373Y-125711277D03*
X161640373Y-125711277D03*
X159340373Y-124561277D03*
X160490373Y-124561277D03*
X161640373Y-124561277D03*
D21*
X158740373Y-128148777D03*
X159240373Y-128148777D03*
X159740373Y-128148777D03*
X160240373Y-128148777D03*
X160740373Y-128148777D03*
X161240373Y-128148777D03*
X161740373Y-128148777D03*
X162240373Y-128148777D03*
D22*
X162927873Y-127461277D03*
X162927873Y-126961277D03*
X162927873Y-126461277D03*
X162927873Y-125961277D03*
X162927873Y-125461277D03*
X162927873Y-124961277D03*
X162927873Y-124461277D03*
X162927873Y-123961277D03*
D21*
X162240373Y-123273777D03*
X161740373Y-123273777D03*
X161240373Y-123273777D03*
X160740373Y-123273777D03*
X160240373Y-123273777D03*
X159740373Y-123273777D03*
X159240373Y-123273777D03*
X158740373Y-123273777D03*
D22*
X158052873Y-123961277D03*
X158052873Y-124461277D03*
X158052873Y-124961277D03*
X158052873Y-125461277D03*
X158052873Y-125961277D03*
X158052873Y-126461277D03*
X158052873Y-126961277D03*
X158052873Y-127461277D03*
%TD*%
D18*
%TO.C,C11*%
X148550000Y-134700000D03*
X146650000Y-134700000D03*
%TD*%
%TO.C,C10*%
X148425000Y-136900000D03*
X146525000Y-136900000D03*
%TD*%
D10*
%TO.C,C8*%
X131100000Y-121000000D03*
X131100000Y-119100000D03*
%TD*%
D11*
%TO.C,R12*%
X172825000Y-126000000D03*
X171000000Y-126000000D03*
%TD*%
%TO.C,R11*%
X168325000Y-124250000D03*
X166500000Y-124250000D03*
%TD*%
D14*
%TO.C,R24*%
X141300000Y-131525000D03*
X141300000Y-129700000D03*
%TD*%
D10*
%TO.C,C19*%
X126650000Y-147350000D03*
X126650000Y-145450000D03*
%TD*%
%TO.C,C35*%
X158000000Y-164950000D03*
X158000000Y-163050000D03*
%TD*%
D19*
%TO.C,C6*%
X139250000Y-110000000D03*
X134850000Y-110000000D03*
%TD*%
D23*
%TO.C,R18*%
X162000000Y-131000000D03*
X162000000Y-129980000D03*
%TD*%
D13*
%TO.C,C30*%
X163500000Y-141050000D03*
X163500000Y-142950000D03*
%TD*%
D14*
%TO.C,R5*%
X159500000Y-117250000D03*
X159500000Y-115425000D03*
%TD*%
D18*
%TO.C,C16*%
X137900000Y-122400000D03*
X136000000Y-122400000D03*
%TD*%
D10*
%TO.C,C31*%
X166250000Y-142950000D03*
X166250000Y-141050000D03*
%TD*%
D24*
%TO.C,C27*%
X150850000Y-119750000D03*
X152750000Y-119750000D03*
%TD*%
D13*
%TO.C,C5*%
X164750000Y-108850000D03*
X164750000Y-110750000D03*
%TD*%
D18*
%TO.C,C14*%
X148007500Y-121542500D03*
X146107500Y-121542500D03*
%TD*%
D10*
%TO.C,C33*%
X154000000Y-133600000D03*
X154000000Y-131700000D03*
%TD*%
D12*
%TO.C,R19*%
X177250000Y-133100000D03*
X176230000Y-133100000D03*
%TD*%
D18*
%TO.C,C13*%
X148000000Y-123700000D03*
X146100000Y-123700000D03*
%TD*%
M02*
